<svg xmlns="http://www.w3.org/2000/svg" viewBox="0 -0.5 26 28" shape-rendering="crispEdges">
<metadata>Made with Pixels to Svg https://codepen.io/shshaw/pen/XbxvNj</metadata>
<path stroke="#ffe282" d="M6 2h8M6 3h8M4 4h6M12 4h4M4 5h6M12 5h4M8 6h2M12 6h2M8 7h2M12 7h2M8 8h6M8 9h6M4 10h10M4 11h10M6 12h6M22 12h2M6 13h6M22 13h2M6 14h18M6 15h18M4 16h16M22 16h2M4 17h16M22 17h2M4 18h12M20 18h2M4 19h12M20 19h2M6 20h14M6 21h14" />
<path stroke="#000000" d="M10 4h2M10 5h2M10 6h2M10 7h2" />
<path stroke="#ff7d2d" d="M2 6h6M2 7h6M2 8h6M2 9h6M8 24h4M16 24h4M8 25h4M16 25h4" />
<path stroke="#fac846" d="M14 6h2M14 7h2M14 8h2M14 9h2M14 10h2M14 11h2M12 12h2M20 12h2M12 13h2M20 13h2M20 16h2M20 17h2M16 18h4M22 18h2M16 19h4M22 19h2M4 20h2M20 20h4M4 21h2M20 21h4M6 22h16M6 23h16" />
</svg>